<svg xmlns="http://www.w3.org/2000/svg" xmlns:xlink="http://www.w3.org/1999/xlink" fill="none" version="1.1" width="24" height="24" viewBox="0 0 24 24"><g><g><g><path d="M13.889971083068847,2.8800003272476196C13.889971083068847,2.8800003272476196,9.200001083068848,2.14000032724762,9.200001083068848,2.14000032724762C5.290001083068848,1.5300003272476197,3.4800010830688475,2.8500003272476198,2.8600000830688477,6.759996327247619C2.8600000830688477,6.759996327247619,2.1200000830688475,11.44999632724762,2.1200000830688475,11.44999632724762C1.7200000830688476,14.01000632724762,2.1400000830688475,15.67000632724762,3.590001083068848,16.680006327247618C4.350001083068848,17.220006327247617,5.390001083068848,17.58000632724762,6.740001083068847,17.790006327247617C6.740001083068847,17.790006327247617,11.430001083068849,18.53000632724762,11.430001083068849,18.53000632724762C15.339971083068848,19.14000632724762,17.14997108306885,17.82000632724762,17.769971083068846,13.91000632724762C17.769971083068846,13.91000632724762,18.499971083068846,9.21999632724762,18.499971083068846,9.21999632724762C18.619971083068847,8.44999632724762,18.669971083068848,7.759996327247619,18.62997108306885,7.14999632724762C18.499971083068846,4.649996327247619,17.029971083068848,3.3699963272476197,13.889971083068847,2.8800003272476196C13.889971083068847,2.8800003272476196,13.889971083068847,2.8800003272476196,13.889971083068847,2.8800003272476196ZM8.240001083068847,9.34999632724762C7.070001083068847,9.34999632724762,6.120001083068848,8.39999632724762,6.120001083068848,7.23999632724762C6.120001083068848,6.06999632724762,7.070001083068847,5.11999632724762,8.240001083068847,5.11999632724762C9.400001083068847,5.11999632724762,10.350001083068848,6.06999632724762,10.350001083068848,7.23999632724762C10.350001083068848,8.39999632724762,9.400001083068847,9.34999632724762,8.240001083068847,9.34999632724762C8.240001083068847,9.34999632724762,8.240001083068847,9.34999632724762,8.240001083068847,9.34999632724762Z" fill="#292D32" fill-opacity="1"/></g><g><path d="M20.499999866485595,13.469999942779541C20.499999866485595,13.469999942779541,18.999999866485595,17.979999942779543,18.999999866485595,17.979999942779543C17.749999866485595,21.73999994277954,15.749999866485595,22.73999994277954,11.989999866485595,21.48999994277954C11.989999866485595,21.48999994277954,7.479999866485596,19.98999994277954,7.479999866485596,19.98999994277954C6.069999866485595,19.519999942779542,5.049999866485596,18.939999942779544,4.389999866485596,18.20999994277954C5.019999866485596,18.45999994277954,5.749999866485596,18.64999994277954,6.579999866485595,18.77999994277954C6.579999866485595,18.77999994277954,11.279999866485596,19.519999942779542,11.279999866485596,19.519999942779542C11.919999866485597,19.619999942779543,12.519999866485596,19.66999994277954,13.079999866485595,19.66999994277954C16.379999866485598,19.66999994277954,18.149999866485594,17.88999994277954,18.759999866485593,14.059999942779541C18.759999866485593,14.059999942779541,19.489999866485597,9.369999942779542,19.489999866485597,9.369999942779542C19.589999866485595,8.789999942779541,19.629999866485598,8.279999942779542,19.629999866485598,7.809999942779541C21.149999866485597,9.059999942779541,21.369999866485596,10.83999994277954,20.499999866485595,13.469999942779541C20.499999866485595,13.469999942779541,20.499999866485595,13.469999942779541,20.499999866485595,13.469999942779541Z" fill="#292D32" fill-opacity="1"/></g><g transform="matrix(-1,-1.2246469849340659e-16,1.2246469849340659e-16,-1,48,48)" style="opacity:0;"></g></g></g></svg>