<svg xmlns="http://www.w3.org/2000/svg" xmlns:xlink="http://www.w3.org/1999/xlink" fill="none" version="1.1" width="24" height="24" viewBox="0 0 24 24"><g><g><path d="M7,2C4.23858,2,2,4.23858,2,7C2,7,2,17,2,17C2,19.7614,4.23858,22,7,22C7,22,17,22,17,22C19.7614,22,22,19.7614,22,17C22,17,22,7,22,7C22,4.23858,19.7614,2,17,2C17,2,7,2,7,2C7,2,7,2,7,2ZM12,7C12.5523,7,13,7.44772,13,8C13,8,13,11,13,11C13,11,16,11,16,11C16.552300000000002,11,17,11.44772,17,12C17,12.5523,16.552300000000002,13,16,13C16,13,13,13,13,13C13,13,13,16,13,16C13,16.552300000000002,12.5523,17,12,17C11.44772,17,11,16.552300000000002,11,16C11,16,11,13,11,13C11,13,8,13,8,13C7.44772,13,7,12.5523,7,12C7,11.44772,7.44772,11,8,11C8,11,11,11,11,11C11,11,11,8,11,8C11,7.44772,11.44772,7,12,7C12,7,12,7,12,7Z" fill-rule="evenodd" fill="#000000" fill-opacity="1"/></g></g></svg>