<svg xmlns="http://www.w3.org/2000/svg" xmlns:xlink="http://www.w3.org/1999/xlink" fill="none" version="1.1" width="24" height="24" viewBox="0 0 24 24"><g><g><g><g><path d="M16,12.75C16,12.75,8,12.75,8,12.75C7.59,12.75,7.25,12.41,7.25,12C7.25,11.59,7.59,11.25,8,11.25C8,11.25,16,11.25,16,11.25C16.41,11.25,16.75,11.59,16.75,12C16.75,12.41,16.41,12.75,16,12.75C16,12.75,16,12.75,16,12.75Z" fill="#292D32" fill-opacity="1"/></g><g><path d="M12,16.75C11.59,16.75,11.25,16.41,11.25,16C11.25,16,11.25,8,11.25,8C11.25,7.59,11.59,7.25,12,7.25C12.41,7.25,12.75,7.59,12.75,8C12.75,8,12.75,16,12.75,16C12.75,16.41,12.41,16.75,12,16.75C12,16.75,12,16.75,12,16.75Z" fill="#292D32" fill-opacity="1"/></g><g><path d="M15,22.75C15,22.75,9,22.75,9,22.75C3.57,22.75,1.25,20.43,1.25,15C1.25,15,1.25,9,1.25,9C1.25,3.57,3.57,1.25,9,1.25C9,1.25,15,1.25,15,1.25C20.43,1.25,22.75,3.57,22.75,9C22.75,9,22.75,15,22.75,15C22.75,20.43,20.43,22.75,15,22.75C15,22.75,15,22.75,15,22.75ZM9,2.75C4.390000000000001,2.75,2.75,4.390000000000001,2.75,9C2.75,9,2.75,15,2.75,15C2.75,19.61,4.390000000000001,21.25,9,21.25C9,21.25,15,21.25,15,21.25C19.61,21.25,21.25,19.61,21.25,15C21.25,15,21.25,9,21.25,9C21.25,4.390000000000001,19.61,2.75,15,2.75C15,2.75,9,2.75,9,2.75C9,2.75,9,2.75,9,2.75Z" fill="#292D32" fill-opacity="1"/></g><g style="opacity:0;"></g></g></g></g></svg>