<svg xmlns="http://www.w3.org/2000/svg" xmlns:xlink="http://www.w3.org/1999/xlink" fill="none" version="1.1" width="24" height="24" viewBox="0 0 24 24"><g><g><path d="M7,2C4.23858,2,2,4.23858,2,7C2,7,2,17,2,17C2,19.7614,4.23858,22,7,22C7,22,17,22,17,22C19.7614,22,22,19.7614,22,17C22,17,22,7,22,7C22,4.23858,19.7614,2,17,2C17,2,7,2,7,2C7,2,7,2,7,2ZM12,7C12.5523,7,13,7.44772,13,8C13,8,13,13.5858,13,13.5858C13,13.5858,15.2929,11.29289,15.2929,11.29289C15.6834,10.90237,16.3166,10.90237,16.7071,11.29289C17.0976,11.68342,17.0976,12.3166,16.7071,12.7071C16.7071,12.7071,12.7071,16.7071,12.7071,16.7071C12.5196,16.8946,12.2652,17,12,17C11.73478,17,11.48043,16.8946,11.29289,16.7071C11.29289,16.7071,7.29289,12.7071,7.29289,12.7071C6.90237,12.3166,6.90237,11.68342,7.29289,11.29289C7.68342,10.90237,8.31658,10.90237,8.70711,11.29289C8.70711,11.29289,11,13.5858,11,13.5858C11,13.5858,11,8,11,8C11,7.44772,11.44772,7,12,7C12,7,12,7,12,7Z" fill-rule="evenodd" fill="#000000" fill-opacity="1"/></g></g></svg>