<svg xmlns="http://www.w3.org/2000/svg" xmlns:xlink="http://www.w3.org/1999/xlink" fill="none" version="1.1" width="24" height="24" viewBox="0 0 24 24"><g><g><path d="M7,2C4.23858,2,2,4.23858,2,7C2,7,2,17,2,17C2,19.7614,4.23858,22,7,22C7,22,17,22,17,22C19.7614,22,22,19.7614,22,17C22,17,22,7,22,7C22,4.23858,19.7614,2,17,2C17,2,7,2,7,2C7,2,7,2,7,2ZM15.9201,9.24176C16.2506,8.50459,15.4954,7.74941,14.7582,8.07987C14.7582,8.07987,8.69274,10.79888,8.69274,10.79888C7.79973,11.1992,7.76142,12.4529,8.62833,12.907C8.62833,12.907,9.898109999999999,13.5721,9.898109999999999,13.5721C10.1245,13.6907,10.30932,13.8755,10.42791,14.1019C10.42791,14.1019,11.09303,15.3717,11.09303,15.3717C11.54712,16.238599999999998,12.8008,16.2003,13.2011,15.3073C13.2011,15.3073,15.9201,9.24176,15.9201,9.24176C15.9201,9.24176,15.9201,9.24176,15.9201,9.24176Z" fill-rule="evenodd" fill="#000000" fill-opacity="1"/></g></g></svg>