<svg xmlns="http://www.w3.org/2000/svg" xmlns:xlink="http://www.w3.org/1999/xlink" fill="none" version="1.1" width="24" height="24" viewBox="0 0 24 24"><g><g><path d="M7.70711,3.292893C7.31658,2.902369,6.68342,2.902369,6.29289,3.292893C5.9023699999999995,3.683417,5.9023699999999995,4.31658,6.29289,4.70711L6.64358,5.05779C5.02032,6.52196,4,8.641829999999999,4,11L4,12L20,12L20,11C20,8.641829999999999,18.9797,6.52196,17.3564,5.05779L17.7071,4.70711C18.0976,4.31658,18.0976,3.683418,17.7071,3.292893C17.3166,2.9023691,16.6834,2.9023691,16.2929,3.292893L15.6872,3.898545C14.5838,3.324464,13.32981,3,12,3C10.67019,3,9.41616,3.324464,8.31276,3.8985440000000002L7.70711,3.292893ZM10,8C10,8.55228,9.55228,9,9,9C8.44772,9,8,8.55228,8,8C8,7.44772,8.44772,7,9,7C9.55228,7,10,7.44772,10,8ZM15,9C15.5523,9,16,8.55228,16,8C16,7.44772,15.5523,7,15,7C14.4477,7,14,7.44772,14,8C14,8.55228,14.4477,9,15,9ZM4,14L4,19C4,20.6569,5.34315,22,7,22L17,22C18.6569,22,20,20.6569,20,19L20,14L4,14Z" fill-rule="evenodd" fill="#09244B" fill-opacity="1"/></g></g></svg>