<svg xmlns="http://www.w3.org/2000/svg" xmlns:xlink="http://www.w3.org/1999/xlink" fill="none" version="1.1" width="24" height="24" viewBox="0 0 24 24"><g><g><g><g><path d="M11.999999885559081,21.24999988555908C11.809999885559083,21.24999988555908,11.619999885559082,21.17999988555908,11.469999885559082,21.029999885559082C11.469999885559082,21.029999885559082,5.399999885559082,14.959999885559082,5.399999885559082,14.959999885559082C5.109999885559082,14.669999885559083,5.109999885559082,14.189999885559082,5.399999885559082,13.899999885559081C5.689999885559082,13.609999885559082,6.169999885559082,13.609999885559082,6.459999885559082,13.899999885559081C6.459999885559082,13.899999885559081,11.999999885559081,19.439999885559082,11.999999885559081,19.439999885559082C11.999999885559081,19.439999885559082,17.539999885559084,13.899999885559081,17.539999885559084,13.899999885559081C17.829999885559083,13.609999885559082,18.30999988555908,13.609999885559082,18.599999885559082,13.899999885559081C18.88999988555908,14.189999885559082,18.88999988555908,14.669999885559083,18.599999885559082,14.959999885559082C18.599999885559082,14.959999885559082,12.529999885559082,21.029999885559082,12.529999885559082,21.029999885559082C12.379999885559082,21.17999988555908,12.189999885559082,21.24999988555908,11.999999885559081,21.24999988555908C11.999999885559081,21.24999988555908,11.999999885559081,21.24999988555908,11.999999885559081,21.24999988555908Z" fill="#292D32" fill-opacity="1"/></g><g><path d="M12,21.08C11.59,21.08,11.25,20.74,11.25,20.33C11.25,20.33,11.25,3.5,11.25,3.5C11.25,3.09,11.59,2.75,12,2.75C12.41,2.75,12.75,3.09,12.75,3.5C12.75,3.5,12.75,20.33,12.75,20.33C12.75,20.74,12.41,21.08,12,21.08C12,21.08,12,21.08,12,21.08Z" fill="#292D32" fill-opacity="1"/></g><g style="opacity:0;"></g></g></g></g></svg>