<svg xmlns="http://www.w3.org/2000/svg" xmlns:xlink="http://www.w3.org/1999/xlink" width="24" height="24" viewBox="0 0 24 24" fill="none">
<path d="M16.4929 12.3464C16.8051 12.6186 16.8375 13.0924 16.5653 13.4046L12.5653 17.9929C12.4229 18.1562 12.2167 18.25 12 18.25C11.7833 18.25 11.5771 18.1562 11.4347 17.9929L7.43467 13.4046C7.16248 13.0924 7.19493 12.6186 7.50715 12.3464C7.81937 12.0742 8.29314 12.1067 8.56533 12.4189L11.25 15.4984L11.25 6.5C11.25 6.08579 11.5858 5.75 12 5.75C12.4142 5.75 12.75 6.08579 12.75 6.5L12.75 15.4984L15.4347 12.4189C15.7069 12.1067 16.1806 12.0742 16.4929 12.3464Z" fill-rule="evenodd"  fill="#363853" >
</path>
</svg>
