<svg xmlns="http://www.w3.org/2000/svg" xmlns:xlink="http://www.w3.org/1999/xlink" fill="none" version="1.1" width="24" height="24" viewBox="0 0 24 24"><defs><clipPath id="master_svg0_0_2701"><rect x="0" y="0" width="24" height="24" rx="0"/></clipPath></defs><g clip-path="url(#master_svg0_0_2701)"><g><path d="M15.70711,4.292893C16.097630000000002,4.683417,16.097630000000002,5.31658,15.70711,5.70711C15.70711,5.70711,9.41421,12,9.41421,12C9.41421,12,15.70711,18.2929,15.70711,18.2929C16.097630000000002,18.6834,16.097630000000002,19.3166,15.70711,19.7071C15.31658,20.0976,14.68342,20.0976,14.29289,19.7071C14.29289,19.7071,7.292893,12.70711,7.292893,12.70711C6.902369,12.31658,6.902369,11.68342,7.292893,11.29289C7.292893,11.29289,14.29289,4.292893,14.29289,4.292893C14.68342,3.902369,15.31658,3.902369,15.70711,4.292893C15.70711,4.292893,15.70711,4.292893,15.70711,4.292893Z" fill-rule="evenodd" fill="#000000" fill-opacity="1"/></g></g></svg>