<svg xmlns="http://www.w3.org/2000/svg" xmlns:xlink="http://www.w3.org/1999/xlink" fill="none" version="1.1" width="24" height="24" viewBox="0 0 24 24"><g><g transform="matrix(-1,0,0,1,44,0)"><path d="M27,2C24.23858,2,22,4.23858,22,7C22,7,22,17,22,17C22,19.7614,24.23858,22,27,22C27,22,37,22,37,22C39.761399999999995,22,42,19.7614,42,17C42,17,42,7,42,7C42,4.23858,39.761399999999995,2,37,2C37,2,27,2,27,2C27,2,27,2,27,2ZM31.29289,7.29289C31.683419999999998,6.90237,32.3166,6.90237,32.7071,7.29289C32.7071,7.29289,36.7071,11.29289,36.7071,11.29289C36.8946,11.48043,37,11.73478,37,12C37,12.2652,36.8946,12.5196,36.7071,12.7071C36.7071,12.7071,32.7071,16.7071,32.7071,16.7071C32.3166,17.0976,31.683419999999998,17.0976,31.29289,16.7071C30.902369999999998,16.3166,30.902369999999998,15.6834,31.29289,15.2929C31.29289,15.2929,33.5858,13,33.5858,13C33.5858,13,28,13,28,13C27.44772,13,27,12.5523,27,12C27,11.44772,27.44772,11,28,11C28,11,33.5858,11,33.5858,11C33.5858,11,31.29289,8.70711,31.29289,8.70711C30.902369999999998,8.31658,30.902369999999998,7.68342,31.29289,7.29289C31.29289,7.29289,31.29289,7.29289,31.29289,7.29289Z" fill-rule="evenodd" fill="#000000" fill-opacity="1"/></g></g></svg>