<svg xmlns="http://www.w3.org/2000/svg" xmlns:xlink="http://www.w3.org/1999/xlink" fill="none" version="1.1" width="24" height="24" viewBox="0 0 24 24"><g><g><g><g style="opacity:0;"></g><g><path d="M16,1.9700000286102295C16,1.9700000286102295,8,1.9700000286102295,8,1.9700000286102295C4,1.9700000286102295,2,3.9700000286102295,2,7.9700000286102295C2,7.9700000286102295,2,12.97000002861023,2,12.97000002861023C2,17.97000002861023,4,18.97000002861023,8,18.97000002861023C8,18.97000002861023,8.5,18.97000002861023,8.5,18.97000002861023C8.780000000000001,18.97000002861023,9.14,19.15000002861023,9.3,19.370000028610228C9.3,19.370000028610228,10.8,21.370000028610228,10.8,21.370000028610228C11.46,22.25000002861023,12.54,22.25000002861023,13.2,21.370000028610228C13.2,21.370000028610228,14.7,19.370000028610228,14.7,19.370000028610228C14.89,19.120000028610228,15.19,18.97000002861023,15.5,18.97000002861023C15.5,18.97000002861023,16,18.97000002861023,16,18.97000002861023C20,18.97000002861023,22,16.97000002861023,22,12.97000002861023C22,12.97000002861023,22,7.9700000286102295,22,7.9700000286102295C22,3.9700000286102295,20,1.9700000286102295,16,1.9700000286102295C16,1.9700000286102295,16,1.9700000286102295,16,1.9700000286102295ZM8.530000000000001,12.170000028610229C8.82,12.46000002861023,8.82,12.94000002861023,8.530000000000001,13.23000002861023C8.379999999999999,13.38000002861023,8.190000000000001,13.45000002861023,8,13.45000002861023C7.81,13.45000002861023,7.62,13.38000002861023,7.47,13.23000002861023C7.47,13.23000002861023,5.470000000000001,11.23000002861023,5.470000000000001,11.23000002861023C5.18,10.94000002861023,5.18,10.46000002861023,5.470000000000001,10.170000028610229C5.470000000000001,10.170000028610229,7.47,8.170000028610229,7.47,8.170000028610229C7.76,7.88000002861023,8.24,7.88000002861023,8.530000000000001,8.170000028610229C8.82,8.46000002861023,8.82,8.940000028610228,8.530000000000001,9.23000002861023C8.530000000000001,9.23000002861023,7.06,10.70000002861023,7.06,10.70000002861023C7.06,10.70000002861023,8.530000000000001,12.170000028610229,8.530000000000001,12.170000028610229C8.530000000000001,12.170000028610229,8.530000000000001,12.170000028610229,8.530000000000001,12.170000028610229ZM13.69,8.66000002861023C13.69,8.66000002861023,11.69,13.330000028610229,11.69,13.330000028610229C11.57,13.61000002861023,11.29,13.78000002861023,11,13.78000002861023C10.9,13.78000002861023,10.8,13.760000028610229,10.7,13.72000002861023C10.32,13.56000002861023,10.14,13.12000002861023,10.31,12.73000002861023C10.31,12.73000002861023,12.31,8.06000002861023,12.31,8.06000002861023C12.47,7.6800000286102295,12.91,7.50000002861023,13.3,7.67000002861023C13.68,7.84000002861023,13.85,8.280000028610228,13.69,8.66000002861023C13.69,8.66000002861023,13.69,8.66000002861023,13.69,8.66000002861023ZM18.53,11.23000002861023C18.53,11.23000002861023,16.53,13.23000002861023,16.53,13.23000002861023C16.380000000000003,13.38000002861023,16.189999999999998,13.45000002861023,16,13.45000002861023C15.81,13.45000002861023,15.62,13.38000002861023,15.47,13.23000002861023C15.18,12.94000002861023,15.18,12.46000002861023,15.47,12.170000028610229C15.47,12.170000028610229,16.939999999999998,10.70000002861023,16.939999999999998,10.70000002861023C16.939999999999998,10.70000002861023,15.47,9.23000002861023,15.47,9.23000002861023C15.18,8.940000028610228,15.18,8.46000002861023,15.47,8.170000028610229C15.76,7.88000002861023,16.240000000000002,7.88000002861023,16.53,8.170000028610229C16.53,8.170000028610229,18.53,10.170000028610229,18.53,10.170000028610229C18.82,10.46000002861023,18.82,10.94000002861023,18.53,11.23000002861023C18.53,11.23000002861023,18.53,11.23000002861023,18.53,11.23000002861023Z" fill="#292D32" fill-opacity="1"/></g></g></g></g></svg>