<svg xmlns="http://www.w3.org/2000/svg" xmlns:xlink="http://www.w3.org/1999/xlink" fill="none" version="1.1" width="24" height="24" viewBox="0 0 24 24"><g><g><g><g><path d="M9.170000610351563,15.580000610351561C8.980000610351562,15.580000610351561,8.790000610351562,15.510000610351563,8.640000610351562,15.360000610351562C8.350000610351563,15.070000610351563,8.350000610351563,14.590000610351563,8.640000610351562,14.300000610351564C8.640000610351562,14.300000610351564,14.300000610351564,8.640000610351562,14.300000610351564,8.640000610351562C14.590000610351563,8.350000610351563,15.070000610351563,8.350000610351563,15.360000610351562,8.640000610351562C15.650000610351562,8.930000610351563,15.650000610351562,9.409999610351562,15.360000610351562,9.700000610351562C15.360000610351562,9.700000610351562,9.700000610351562,15.360000610351562,9.700000610351562,15.360000610351562C9.560000610351562,15.510000610351563,9.360000610351562,15.580000610351561,9.170000610351563,15.580000610351561C9.170000610351563,15.580000610351561,9.170000610351563,15.580000610351561,9.170000610351563,15.580000610351561Z" fill="#292D32" fill-opacity="1"/></g><g><path d="M14.830000610351561,15.580000610351561C14.640000610351564,15.580000610351561,14.450000610351562,15.510000610351563,14.300000610351564,15.360000610351562C14.300000610351564,15.360000610351562,8.640000610351562,9.700000610351562,8.640000610351562,9.700000610351562C8.350000610351563,9.409999610351562,8.350000610351563,8.930000610351563,8.640000610351562,8.640000610351562C8.930000610351563,8.350000610351563,9.409999610351562,8.350000610351563,9.700000610351562,8.640000610351562C9.700000610351562,8.640000610351562,15.360000610351562,14.300000610351564,15.360000610351562,14.300000610351564C15.650000610351562,14.590000610351563,15.650000610351562,15.070000610351563,15.360000610351562,15.360000610351562C15.210000610351562,15.510000610351563,15.020000610351563,15.580000610351561,14.830000610351561,15.580000610351561C14.830000610351561,15.580000610351561,14.830000610351561,15.580000610351561,14.830000610351561,15.580000610351561Z" fill="#292D32" fill-opacity="1"/></g><g><path d="M15,22.75C15,22.75,9,22.75,9,22.75C3.57,22.75,1.25,20.43,1.25,15C1.25,15,1.25,9,1.25,9C1.25,3.57,3.57,1.25,9,1.25C9,1.25,15,1.25,15,1.25C20.43,1.25,22.75,3.57,22.75,9C22.75,9,22.75,15,22.75,15C22.75,20.43,20.43,22.75,15,22.75C15,22.75,15,22.75,15,22.75ZM9,2.75C4.390000000000001,2.75,2.75,4.390000000000001,2.75,9C2.75,9,2.75,15,2.75,15C2.75,19.61,4.390000000000001,21.25,9,21.25C9,21.25,15,21.25,15,21.25C19.61,21.25,21.25,19.61,21.25,15C21.25,15,21.25,9,21.25,9C21.25,4.390000000000001,19.61,2.75,15,2.75C15,2.75,9,2.75,9,2.75C9,2.75,9,2.75,9,2.75Z" fill="#292D32" fill-opacity="1"/></g><g style="opacity:0;"></g></g></g></g></svg>