<svg xmlns="http://www.w3.org/2000/svg" xmlns:xlink="http://www.w3.org/1999/xlink" fill="none" version="1.1" width="24" height="24" viewBox="0 0 24 24"><g><g><g><g><path d="M12,22.75C6.07,22.75,1.25,17.93,1.25,12C1.25,6.07,6.07,1.25,12,1.25C12.41,1.25,12.75,1.59,12.75,2C12.75,2.41,12.41,2.75,12,2.75C6.9,2.75,2.75,6.9,2.75,12C2.75,17.1,6.9,21.25,12,21.25C17.1,21.25,21.25,17.1,21.25,12C21.25,11.59,21.59,11.25,22,11.25C22.41,11.25,22.75,11.59,22.75,12C22.75,17.93,17.93,22.75,12,22.75C12,22.75,12,22.75,12,22.75Z" fill="#292D32" fill-opacity="1"/></g><g><path d="M13.000000534057618,11.750000009536743C12.810000534057616,11.750000009536743,12.620000534057617,11.680000009536743,12.470000534057617,11.530000009536742C12.180000534057617,11.240000009536743,12.180000534057617,10.760000009536743,12.470000534057617,10.470000009536744C12.470000534057617,10.470000009536744,20.670000534057618,2.270000009536743,20.670000534057618,2.270000009536743C20.960000534057617,1.9800000095367432,21.440000534057617,1.9800000095367432,21.730000534057616,2.270000009536743C22.020000534057615,2.560000009536743,22.020000534057615,3.040000009536743,21.730000534057616,3.330000009536743C21.730000534057616,3.330000009536743,13.530000534057617,11.530000009536742,13.530000534057617,11.530000009536742C13.380000534057617,11.680000009536743,13.190000534057617,11.750000009536743,13.000000534057618,11.750000009536743C13.000000534057618,11.750000009536743,13.000000534057618,11.750000009536743,13.000000534057618,11.750000009536743Z" fill="#292D32" fill-opacity="1"/></g><g><path d="M22.000000076293944,7.58C21.590000076293947,7.58,21.250000076293944,7.24,21.250000076293944,6.83C21.250000076293944,6.83,21.250000076293944,2.75,21.250000076293944,2.75C21.250000076293944,2.75,17.170000076293945,2.75,17.170000076293945,2.75C16.760000076293945,2.75,16.420000076293945,2.41,16.420000076293945,2C16.420000076293945,1.59,16.760000076293945,1.25,17.170000076293945,1.25C17.170000076293945,1.25,22.000000076293944,1.25,22.000000076293944,1.25C22.410000076293947,1.25,22.750000076293944,1.59,22.750000076293944,2C22.750000076293944,2,22.750000076293944,6.83,22.750000076293944,6.83C22.750000076293944,7.24,22.410000076293947,7.58,22.000000076293944,7.58C22.000000076293944,7.58,22.000000076293944,7.58,22.000000076293944,7.58Z" fill="#292D32" fill-opacity="1"/></g><g style="opacity:0;"></g></g></g></g></svg>