<svg xmlns="http://www.w3.org/2000/svg" xmlns:xlink="http://www.w3.org/1999/xlink" fill="none" version="1.1" width="24" height="24" viewBox="0 0 24 24"><defs><clipPath id="master_svg0_0_1370"><rect x="0" y="0" width="24" height="24" rx="0"/></clipPath></defs><g clip-path="url(#master_svg0_0_1370)"><g><path d="M16.178078475952148,22.499716079711913C16.178078475952148,22.499716079711913,11.999578475952148,22.499716079711913,11.999578475952148,22.499716079711913C11.999578475952148,22.499716079711913,11.999578475952148,20.357016079711915,11.999578475952148,20.357016079711915C12.000278475952149,20.158916079711915,11.960778475952148,19.962616079711914,11.883478475952149,19.780216079711913C11.806278475952148,19.597716079711915,11.692778475952148,19.432716079711913,11.550078475952148,19.295316079711913C11.190538475952149,18.940916079711915,10.667408475952149,18.741716079711914,10.11709847595215,18.749716079711913C9.627568475952149,18.754316079711913,9.15533847595215,18.931416079711916,8.783508475952148,19.249816079711913C8.539758475952148,19.465516079711914,8.249598475952148,19.838616079711915,8.249598475952148,20.394516079711913C8.249598475952148,20.394516079711913,8.249598475952148,22.499716079711913,8.249598475952148,22.499716079711913C8.249598475952148,22.499716079711913,4.106788475952149,22.499716079711913,4.106788475952149,22.499716079711913C3.415548475952148,22.498916079711915,2.7528284759521484,22.224016079711912,2.2640474759521485,21.735216079711915C1.7752664759521484,21.246416079711913,1.5003427359521484,20.583716079711913,1.4995982647521484,19.892516079711914C1.4995982647521484,19.892516079711914,1.4995982647521484,15.749716079711915,1.4995982647521484,15.749716079711915C1.4995982647521484,15.749716079711915,3.6422584759521484,15.749716079711915,3.6422584759521484,15.749716079711915C4.071628475952148,15.749716079711915,4.489288475952149,15.565916079711915,4.818348475952149,15.234016079711914C5.001418475952148,15.049516079711914,5.146188475952148,14.830616079711914,5.244338475952148,14.589916079711914C5.342478475952149,14.349216079711914,5.392058475952148,14.091516079711914,5.390218475952148,13.831516079711914C5.376158475952149,12.838316079711914,4.558658475952148,11.999716079711915,3.6047584759521483,11.999716079711915C3.6047584759521483,11.999716079711915,1.4995982647521484,11.999716079711915,1.4995982647521484,11.999716079711915C1.4995982647521484,11.999716079711915,1.4995982647521484,7.811876079711914,1.4995982647521484,7.811876079711914C1.4982458559521485,7.470566079711914,1.5662267759521484,7.132546079711914,1.6994194759521484,6.818296079711914C1.8326114759521483,6.504056079711914,2.0282394759521485,6.220136079711914,2.2744414759521483,5.983756079711914C2.7661284759521485,5.509486079711914,3.4236484759521484,5.246076079711914,4.106788475952149,5.249686079711914C4.106788475952149,5.249686079711914,7.071158475952148,5.249686079711914,7.071158475952148,5.249686079711914C7.071158475952148,5.249686079711914,7.071158475952148,4.570936079711914,7.071158475952148,4.570936079711914C7.071158475952148,4.163016079711914,7.152408475952148,3.759186079711914,7.310168475952149,3.3830060797119144C7.467918475952149,3.006816079711914,7.699028475952148,2.665826079711914,7.989988475952148,2.379927079711914C8.280948475952147,2.094026079711914,8.625948475952148,1.8689410797119141,9.004838475952148,1.7178110797119142C9.383728475952148,1.566680179711914,9.788928475952149,1.4925304697119142,10.196788475952149,1.4996891567119142C11.860378475952148,1.528751679711914,13.213678475952149,2.923756079711914,13.213678475952149,4.608906079711915C13.213678475952149,4.608906079711915,13.213678475952149,5.249686079711914,13.213678475952149,5.249686079711914C13.213678475952149,5.249686079711914,16.178078475952148,5.249686079711914,16.178078475952148,5.249686079711914C16.51677847595215,5.246046079711914,16.85277847595215,5.310076079711914,17.16637847595215,5.438026079711914C17.480078475952148,5.565966079711914,17.764978475952148,5.755256079711914,18.004478475952148,5.994776079711914C18.244078475952147,6.234296079711914,18.43327847595215,6.519226079711914,18.561278475952147,6.832866079711914C18.689178475952147,7.146506079711914,18.753278475952147,7.482536079711914,18.74957847595215,7.821256079711914C18.74957847595215,7.821256079711914,18.74957847595215,10.785626079711914,18.74957847595215,10.785626079711914C18.74957847595215,10.785626079711914,19.38987847595215,10.785626079711914,19.38987847595215,10.785626079711914C21.10457847595215,10.785626079711914,22.49957847595215,12.145016079711914,22.49957847595215,13.815616079711914C22.49957847595215,15.531716079711915,21.121978475952147,16.928116079711913,19.428378475952147,16.928116079711913C19.428378475952147,16.928116079711913,18.74957847595215,16.928116079711913,18.74957847595215,16.928116079711913C18.74957847595215,16.928116079711913,18.74957847595215,19.892516079711914,18.74957847595215,19.892516079711914C18.74957847595215,21.330116079711914,17.595978475952148,22.499716079711913,16.178078475952148,22.499716079711913C16.178078475952148,22.499716079711913,16.178078475952148,22.499716079711913,16.178078475952148,22.499716079711913Z" fill="#373737" fill-opacity="1"/></g></g></svg>