<svg xmlns="http://www.w3.org/2000/svg" xmlns:xlink="http://www.w3.org/1999/xlink" width="24" height="24" viewBox="0 0 24 24" fill="none">
<path     fill="url(#linear_fill_KLn0zX2L_9_0)"  d="M12.674 12.4423L15.781 16.0878C16.1306 16.498 16.7557 16.5229 17.1368 16.1418C17.5179 15.7607 17.493 15.1356 17.0828 14.786L13.4373 11.679C13.2224 11.4959 12.9029 11.5086 12.7032 11.7082C12.5036 11.9079 12.4909 12.2274 12.674 12.4423Z">
</path>
<path    stroke="rgba(37, 40, 39, 1)" stroke-width="2" stroke-linejoin="round"   d="M11 4C13.76 4 16 6.24 16 9C16 11.76 13.76 14 11 14">
</path>
<path d="M6.75736 4.75736C5.63214 5.88258 5 7.4087 5 9C5 10.5913 5.63214 12.1174 6.75736 13.2426C7.88258 14.3679 9.4087 15 11 15L11 9L11 3C9.4087 3 7.88258 3.63214 6.75736 4.75736Z"   fill="url(#linear_fill_J7ZCOe1jUu)" >
</path>
<defs>
<linearGradient id="linear_fill_KLn0zX2L_9_0" x1="12.703216552734375" y1="11.708251953125" x2="17.13677978515625" y2="16.14178466796875" gradientUnits="userSpaceOnUse">
<stop offset="0" stop-color="#0AB678"  />
<stop offset="1" stop-color="#0AB678" stop-opacity="0.3" />
</linearGradient>
<linearGradient id="linear_fill_J7ZCOe1jUu" x1="11" y1="3" x2="11" y2="15" gradientUnits="userSpaceOnUse">
<stop offset="0" stop-color="#0AB678"  />
<stop offset="1" stop-color="#0AB678" stop-opacity="0.3" />
</linearGradient>
</defs>
</svg>
