<svg xmlns="http://www.w3.org/2000/svg" xmlns:xlink="http://www.w3.org/1999/xlink" fill="none" version="1.1" width="24" height="24" viewBox="0 0 24 24"><g><g><g><g><path d="M12.159609413146972,11.62C12.129609413146973,11.62,12.109609413146973,11.62,12.079609413146972,11.62C12.029609413146972,11.61,11.959609413146973,11.61,11.899609413146973,11.62C8.999609413146972,11.53,6.809609413146973,9.25,6.809609413146973,6.44C6.809609413146973,3.58,9.139609413146973,1.25,11.999609413146974,1.25C14.859609413146973,1.25,17.189609413146975,3.58,17.189609413146975,6.44C17.17960941314697,9.25,14.979609413146973,11.53,12.189609413146972,11.62C12.179609413146974,11.62,12.169609413146972,11.62,12.159609413146972,11.62C12.159609413146972,11.62,12.159609413146972,11.62,12.159609413146972,11.62ZM11.999609413146974,2.75C9.969609413146973,2.75,8.309609413146973,4.41,8.309609413146973,6.44C8.309609413146973,8.440000000000001,9.869609413146973,10.05,11.859609413146973,10.12C11.909609413146972,10.11,12.049609413146973,10.11,12.179609413146974,10.12C14.139609413146973,10.03,15.679609413146972,8.42,15.689609413146973,6.44C15.689609413146973,4.41,14.029609413146972,2.75,11.999609413146974,2.75C11.999609413146974,2.75,11.999609413146974,2.75,11.999609413146974,2.75Z" fill="#292D32" fill-opacity="1"/></g><g style="opacity:0;"></g><g><path d="M12.169609375,22.55C10.209609375,22.55,8.239609375,22.05,6.749609375,21.05C5.359609375,20.13,4.599609375,18.87,4.599609375,17.5C4.599609375,16.13,5.359609375,14.86,6.749609375,13.93C9.749609375,11.94,14.609609375,11.94,17.589609375000002,13.93C18.969609374999997,14.85,19.739609375,16.11,19.739609375,17.48C19.739609375,18.85,18.979609375000003,20.12,17.589609375000002,21.05C16.089609375000002,22.05,14.129609375,22.55,12.169609375,22.55C12.169609375,22.55,12.169609375,22.55,12.169609375,22.55ZM7.579609375,15.19C6.619609375,15.83,6.099609375,16.65,6.099609375,17.509999999999998C6.099609375,18.36,6.629609374999999,19.18,7.579609375,19.81C10.069609374999999,21.48,14.269609375,21.48,16.759609375,19.81C17.719609374999997,19.17,18.239609375,18.35,18.239609375,17.490000000000002C18.239609375,16.64,17.709609375,15.82,16.759609375,15.19C14.269609375,13.53,10.069609374999999,13.53,7.579609375,15.19C7.579609375,15.19,7.579609375,15.19,7.579609375,15.19Z" fill="#292D32" fill-opacity="1"/></g></g></g></g></svg>