<svg xmlns="http://www.w3.org/2000/svg" xmlns:xlink="http://www.w3.org/1999/xlink" fill="none" version="1.1" width="24" height="24" viewBox="0 0 24 24"><g><g><g><g><path d="M17.79,22.749963726043703C17.79,22.749963726043703,6.21,22.749963726043703,6.21,22.749963726043703C3.47,22.749963726043703,1.25,20.519963726043702,1.25,17.7799637260437C1.25,17.7799637260437,1.25,10.3700037260437,1.25,10.3700037260437C1.25,9.010003726043701,2.09,7.300003726043701,3.17,6.460003726043701C3.17,6.460003726043701,8.559999999999999,2.2600007260437014,8.559999999999999,2.2600007260437014C10.18,1.0000007260437012,12.77,0.9400007260437011,14.45,2.119999726043701C14.45,2.119999726043701,20.63,6.450003726043701,20.63,6.450003726043701C21.82,7.280003726043701,22.75,9.0600037260437,22.75,10.510003726043701C22.75,10.510003726043701,22.75,17.789963726043702,22.75,17.789963726043702C22.75,20.519963726043702,20.53,22.749963726043703,17.79,22.749963726043703C17.79,22.749963726043703,17.79,22.749963726043703,17.79,22.749963726043703ZM9.48,3.440003726043701C9.48,3.440003726043701,4.09,7.640003726043701,4.09,7.640003726043701C3.38,8.2000037260437,2.75,9.470003726043702,2.75,10.3700037260437C2.75,10.3700037260437,2.75,17.7799637260437,2.75,17.7799637260437C2.75,19.6899637260437,4.3,21.249963726043703,6.21,21.249963726043703C6.21,21.249963726043703,17.79,21.249963726043703,17.79,21.249963726043703C19.7,21.249963726043703,21.25,19.699963726043702,21.25,17.789963726043702C21.25,17.789963726043702,21.25,10.510003726043701,21.25,10.510003726043701C21.25,9.550003726043702,20.56,8.2200037260437,19.77,7.680003726043701C19.77,7.680003726043701,13.59,3.3500037260437012,13.59,3.3500037260437012C12.45,2.550003726043701,10.57,2.590003726043701,9.48,3.440003726043701C9.48,3.440003726043701,9.48,3.440003726043701,9.48,3.440003726043701Z" fill="#292D32" fill-opacity="1"/></g><g><path d="M12,18.75C11.59,18.75,11.25,18.41,11.25,18C11.25,18,11.25,15,11.25,15C11.25,14.59,11.59,14.25,12,14.25C12.41,14.25,12.75,14.59,12.75,15C12.75,15,12.75,18,12.75,18C12.75,18.41,12.41,18.75,12,18.75C12,18.75,12,18.75,12,18.75Z" fill="#292D32" fill-opacity="1"/></g><g style="opacity:0;"></g></g></g></g></svg>