<svg xmlns="http://www.w3.org/2000/svg" xmlns:xlink="http://www.w3.org/1999/xlink" fill="none" version="1.1" width="24" height="24" viewBox="0 0 24 24"><g><g><path d="M9,3C10.104569999999999,3,11,3.89543,11,5C11,5,11,11,11,11C11,12.10457,10.104569999999999,13,9,13C9,13,5,13,5,13C3.895431,13,3,12.10457,3,11C3,11,3,5,3,5C3,3.89543,3.895431,3,5,3C5,3,9,3,9,3C9,3,9,3,9,3ZM9,15C10.104569999999999,15,11,15.8954,11,17C11,17,11,19,11,19C11,20.1046,10.104569999999999,21,9,21C9,21,5,21,5,21C3.895431,21,3,20.1046,3,19C3,19,3,17,3,17C3,15.8954,3.895431,15,5,15C5,15,9,15,9,15C9,15,9,15,9,15ZM19,3C20.1046,3,21,3.89543,21,5C21,5,21,7,21,7C21,8.104569999999999,20.1046,9,19,9C19,9,15,9,15,9C13.8954,9,13,8.104569999999999,13,7C13,7,13,5,13,5C13,3.89543,13.8954,3,15,3C15,3,19,3,19,3C19,3,19,3,19,3ZM21,13C21,11.89543,20.1046,11,19,11C19,11,15,11,15,11C13.8954,11,13,11.89543,13,13C13,13,13,19,13,19C13,20.1046,13.8954,21,15,21C15,21,19,21,19,21C20.1046,21,21,20.1046,21,19C21,19,21,13,21,13C21,13,21,13,21,13Z" fill-rule="evenodd" fill="#09244B" fill-opacity="1"/></g></g></svg>