<svg xmlns="http://www.w3.org/2000/svg" xmlns:xlink="http://www.w3.org/1999/xlink" fill="none" version="1.1" width="24" height="24" viewBox="0 0 24 24"><g><g><g><g><path d="M20.040000009536744,6.819999492874145C20.040000009536744,6.819999492874145,14.280000009536742,2.7899994928741454,14.280000009536742,2.7899994928741454C12.710000009536744,1.6899994928741455,10.300000009536744,1.7500004928741455,8.790000009536744,2.9200004928741454C8.790000009536744,2.9200004928741454,3.780000009536743,6.829999492874146,3.780000009536743,6.829999492874146C2.780000009536743,7.609999492874145,1.9900000095367432,9.209999492874147,1.9900000095367432,10.469999492874145C1.9900000095367432,10.469999492874145,1.9900000095367432,17.369959492874145,1.9900000095367432,17.369959492874145C1.9900000095367432,19.919959492874145,4.0600000095367434,21.999959492874144,6.610000009536743,21.999959492874144C6.610000009536743,21.999959492874144,17.39000000953674,21.999959492874144,17.39000000953674,21.999959492874144C19.940000009536742,21.999959492874144,22.010000009536743,19.929959492874147,22.010000009536743,17.379959492874146C22.010000009536743,17.379959492874146,22.010000009536743,10.599999492874145,22.010000009536743,10.599999492874145C22.010000009536743,9.249999492874146,21.14000000953674,7.589999492874146,20.040000009536744,6.819999492874145C20.040000009536744,6.819999492874145,20.040000009536744,6.819999492874145,20.040000009536744,6.819999492874145ZM12.750000009536743,17.999959492874147C12.750000009536743,18.409959492874144,12.410000009536743,18.749959492874144,12.000000009536743,18.749959492874144C11.590000009536743,18.749959492874144,11.250000009536743,18.409959492874144,11.250000009536743,17.999959492874147C11.250000009536743,17.999959492874147,11.250000009536743,14.999959492874146,11.250000009536743,14.999959492874146C11.250000009536743,14.589959492874145,11.590000009536743,14.249959492874146,12.000000009536743,14.249959492874146C12.410000009536743,14.249959492874146,12.750000009536743,14.589959492874145,12.750000009536743,14.999959492874146C12.750000009536743,14.999959492874146,12.750000009536743,17.999959492874147,12.750000009536743,17.999959492874147C12.750000009536743,17.999959492874147,12.750000009536743,17.999959492874147,12.750000009536743,17.999959492874147Z" fill="#292D32" fill-opacity="1"/></g><g transform="matrix(-1,-1.2246469849340659e-16,1.2246469849340659e-16,-1,48,48)" style="opacity:0;"></g></g></g></g></svg>