<svg xmlns="http://www.w3.org/2000/svg" xmlns:xlink="http://www.w3.org/1999/xlink" fill="none" version="1.1" width="24" height="24" viewBox="0 0 24 24"><g><g><path d="M13.2,2.650000238418579C12.48889,2.116667238418579,11.51111,2.116667238418579,10.8,2.650000238418579C10.8,2.650000238418579,3.8,7.9000002384185795,3.8,7.9000002384185795C3.296388,8.277710238418578,3,8.87049023841858,3,9.500000238418579C3,9.500000238418579,3,19.00000023841858,3,19.00000023841858C3,20.10460023841858,3.895431,21.00000023841858,5,21.00000023841858C5,21.00000023841858,8.9,21.00000023841858,8.9,21.00000023841858C9.50751,21.00000023841858,10,20.50750023841858,10,19.900000238418578C10,19.900000238418578,10,15.000000238418579,10,15.000000238418579C10,13.89540023841858,10.895430000000001,13.000000238418579,12,13.000000238418579C13.1046,13.000000238418579,14,13.89540023841858,14,15.000000238418579C14,15.000000238418579,14,19.900000238418578,14,19.900000238418578C14,20.50750023841858,14.4925,21.00000023841858,15.1,21.00000023841858C15.1,21.00000023841858,19,21.00000023841858,19,21.00000023841858C20.1046,21.00000023841858,21,20.10460023841858,21,19.00000023841858C21,19.00000023841858,21,9.500000238418579,21,9.500000238418579C21,8.87049023841858,20.7036,8.277710238418578,20.2,7.9000002384185795C20.2,7.9000002384185795,13.2,2.650000238418579,13.2,2.650000238418579C13.2,2.650000238418579,13.2,2.650000238418579,13.2,2.650000238418579Z" fill="#4B0909" fill-opacity="1"/></g></g></svg>