<svg xmlns="http://www.w3.org/2000/svg" xmlns:xlink="http://www.w3.org/1999/xlink" fill="none" version="1.1" width="24" height="24" viewBox="0 0 24 24"><g><g><g><g style="opacity:0.10000000149011612;"></g></g></g><g><path d="M20.479,7.578269761581421C20.479,7.578269761581421,15.093,3.125019761581421,15.093,3.125019761581421C13.2787,1.624993761581421,10.72126,1.624991761581421,8.907029999999999,3.125019761581421C8.907029999999999,3.125019761581421,3.52097,7.578269761581421,3.52097,7.578269761581421C2.550588,8.38058976158142,2,9.59704976158142,2,10.866299761581422C2,10.866299761581422,2,17.81089976158142,2,17.81089976158142C2,20.06599976158142,3.73415,21.99999976158142,6,21.99999976158142C6,21.99999976158142,8,21.99999976158142,8,21.99999976158142C9.104569999999999,21.99999976158142,10,21.104599761581422,10,19.99999976158142C10,19.99999976158142,10,16.74779976158142,10,16.74779976158142C10,15.48029976158142,10.95214,14.55869976158142,12,14.55869976158142C13.0479,14.55869976158142,14,15.48029976158142,14,16.74779976158142C14,16.74779976158142,14,19.99999976158142,14,19.99999976158142C14,21.104599761581422,14.8954,21.99999976158142,16,21.99999976158142C16,21.99999976158142,18,21.99999976158142,18,21.99999976158142C20.2659,21.99999976158142,22,20.06599976158142,22,17.81089976158142C22,17.81089976158142,22,10.866299761581422,22,10.866299761581422C22,9.59705976158142,21.4494,8.38058976158142,20.479,7.578269761581421C20.479,7.578269761581421,20.479,7.578269761581421,20.479,7.578269761581421Z" fill-rule="evenodd" fill="#000000" fill-opacity="1"/></g></g></svg>