<svg xmlns="http://www.w3.org/2000/svg" xmlns:xlink="http://www.w3.org/1999/xlink" fill="none" version="1.1" width="24" height="24" viewBox="0 0 24 24"><g><g><g><g><path d="M2.5799999523162844,19.01000068664551C2.5799999523162844,19.01000068664551,2.559999952316284,19.030000686645508,2.559999952316284,19.030000686645508C2.2899999523162844,18.440000686645508,2.119999952316284,17.770000686645506,2.049999952316284,17.030000686645508C2.119999952316284,17.76000068664551,2.309999952316284,18.42000068664551,2.5799999523162844,19.01000068664551C2.5799999523162844,19.01000068664551,2.5799999523162844,19.01000068664551,2.5799999523162844,19.01000068664551Z" fill="#292D32" fill-opacity="1"/></g><g><path d="M8.999999885559081,10.379999885559082C10.314439885559082,10.379999885559082,11.379999885559082,9.314439885559082,11.379999885559082,7.999999885559082C11.379999885559082,6.685559885559082,10.314439885559082,5.619999885559082,8.999999885559081,5.619999885559082C7.685559885559082,5.619999885559082,6.619999885559082,6.685559885559082,6.619999885559082,7.999999885559082C6.619999885559082,9.314439885559082,7.685559885559082,10.379999885559082,8.999999885559081,10.379999885559082C8.999999885559081,10.379999885559082,8.999999885559081,10.379999885559082,8.999999885559081,10.379999885559082Z" fill="#292D32" fill-opacity="1"/></g><g><path d="M16.189999999999998,2C16.189999999999998,2,7.81,2,7.81,2C4.17,2,2,4.17,2,7.81C2,7.81,2,16.189999999999998,2,16.189999999999998C2,17.28,2.19,18.23,2.56,19.03C3.42,20.93,5.26,22,7.81,22C7.81,22,16.189999999999998,22,16.189999999999998,22C19.83,22,22,19.83,22,16.189999999999998C22,16.189999999999998,22,13.9,22,13.9C22,13.9,22,7.81,22,7.81C22,4.17,19.83,2,16.189999999999998,2C16.189999999999998,2,16.189999999999998,2,16.189999999999998,2ZM20.37,12.5C19.59,11.83,18.33,11.83,17.55,12.5C17.55,12.5,13.39,16.07,13.39,16.07C12.61,16.740000000000002,11.35,16.740000000000002,10.57,16.07C10.57,16.07,10.23,15.79,10.23,15.79C9.52,15.17,8.39,15.11,7.59,15.65C7.59,15.65,3.85,18.16,3.85,18.16C3.63,17.6,3.5,16.95,3.5,16.189999999999998C3.5,16.189999999999998,3.5,7.81,3.5,7.81C3.5,4.99,4.99,3.5,7.81,3.5C7.81,3.5,16.189999999999998,3.5,16.189999999999998,3.5C19.01,3.5,20.5,4.99,20.5,7.81C20.5,7.81,20.5,12.61,20.5,12.61C20.5,12.61,20.37,12.5,20.37,12.5C20.37,12.5,20.37,12.5,20.37,12.5Z" fill="#292D32" fill-opacity="1"/></g><g style="opacity:0;"></g></g></g></g></svg>