<svg xmlns="http://www.w3.org/2000/svg" xmlns:xlink="http://www.w3.org/1999/xlink" fill="none" version="1.1" width="24" height="24" viewBox="0 0 24 24"><g><g><g><g><path d="M12,22.81C11.31,22.81,10.66,22.46,10.2,21.85C10.2,21.85,8.7,19.85,8.7,19.85C8.67,19.81,8.55,19.76,8.5,19.75C8.5,19.75,8,19.75,8,19.75C3.83,19.75,1.25,18.62,1.25,13C1.25,13,1.25,8,1.25,8C1.25,3.58,3.58,1.25,8,1.25C8,1.25,16,1.25,16,1.25C20.42,1.25,22.75,3.58,22.75,8C22.75,8,22.75,13,22.75,13C22.75,17.42,20.42,19.75,16,19.75C16,19.75,15.5,19.75,15.5,19.75C15.42,19.75,15.35,19.79,15.3,19.85C15.3,19.85,13.8,21.85,13.8,21.85C13.34,22.46,12.69,22.81,12,22.81C12,22.81,12,22.81,12,22.81ZM8,2.75C4.42,2.75,2.75,4.42,2.75,8C2.75,8,2.75,13,2.75,13C2.75,17.52,4.3,18.25,8,18.25C8,18.25,8.5,18.25,8.5,18.25C9.01,18.25,9.59,18.54,9.9,18.95C9.9,18.95,11.4,20.95,11.4,20.95C11.75,21.41,12.25,21.41,12.6,20.95C12.6,20.95,14.1,18.95,14.1,18.95C14.43,18.51,14.95,18.25,15.5,18.25C15.5,18.25,16,18.25,16,18.25C19.58,18.25,21.25,16.58,21.25,13C21.25,13,21.25,8,21.25,8C21.25,4.42,19.58,2.75,16,2.75C16,2.75,8,2.75,8,2.75C8,2.75,8,2.75,8,2.75Z" fill="#292D32" fill-opacity="1"/></g><g><path d="M12,12C11.44,12,11,11.55,11,11C11,10.45,11.45,10,12,10C12.55,10,13,10.45,13,11C13,11.55,12.56,12,12,12C12,12,12,12,12,12Z" fill="#292D32" fill-opacity="1"/></g><g><path d="M16,12C15.44,12,15,11.55,15,11C15,10.45,15.45,10,16,10C16.55,10,17,10.45,17,11C17,11.55,16.56,12,16,12C16,12,16,12,16,12Z" fill="#292D32" fill-opacity="1"/></g><g><path d="M8,12C7.44,12,7,11.55,7,11C7,10.45,7.45,10,8,10C8.55,10,9,10.45,9,11C9,11.55,8.56,12,8,12C8,12,8,12,8,12Z" fill="#292D32" fill-opacity="1"/></g><g style="opacity:0;"></g></g></g></g></svg>