<svg xmlns="http://www.w3.org/2000/svg" xmlns:xlink="http://www.w3.org/1999/xlink" fill="none" version="1.1" width="24" height="24" viewBox="0 0 24 24"><g><g><g><g><path d="M11.3099896875,17.99998507003784C11.2999896875,17.99998507003784,11.299979687499999,17.99998507003784,11.2899796875,17.99998507003784C10.2499796875,17.98998507003784,9.3699896875,17.33998507003784,9.0599896875,16.349975070037843C9.0599896875,16.349975070037843,7.1099886875,10.069975070037842,7.1099886875,10.069975070037842C6.8499886875,9.219975070037842,7.0699853875,8.309965070037842,7.6999856875,7.689970070037842C8.3199896875,7.069969870037842,9.2199896875,6.849952070037842,10.0599896875,7.109952070037842C10.0599896875,7.109952070037842,16.3499896875,9.059965070037842,16.3499896875,9.059965070037842C17.350029687499998,9.369965070037843,18.0000296875,10.249975070037841,18.0100296875,11.28997507003784C18.0200296875,12.329975070037841,17.3900296875,13.209975070037842,16.3999796875,13.53997507003784C16.3999796875,13.53997507003784,14.679979687500001,14.119965070037843,14.679979687500001,14.119965070037843C14.4199796875,14.209965070037843,14.2299896875,14.399965070037842,14.1399896875,14.649965070037842C14.1399896875,14.649965070037842,13.5499896875,16.379975070037844,13.5499896875,16.379975070037844C13.2199896875,17.369985070037842,12.339989687500001,17.99998507003784,11.3099896875,17.99998507003784C11.3099896875,17.99998507003784,11.3099896875,17.99998507003784,11.3099896875,17.99998507003784ZM9.3399796875,8.499965070037842C9.0399896875,8.499965070037842,8.8399896875,8.659965070037842,8.7499896875,8.749965070037842C8.5199896875,8.979965070037842,8.4399796875,9.309965070037842,8.5399796875,9.619965070037843C8.5399796875,9.619965070037843,10.4899896875,15.899965070037842,10.4899896875,15.899965070037842C10.6599896875,16.44996507003784,11.1499896875,16.49996507003784,11.2999896875,16.49996507003784C11.4199896875,16.48996507003784,11.9299896875,16.459975070037842,12.1099896875,15.909975070037842C12.1099896875,15.909975070037842,12.6999896875,14.179955070037842,12.6999896875,14.179955070037842C12.9299896875,13.48995507003784,13.4899796875,12.929975070037841,14.179979687500001,12.69997507003784C14.179979687500001,12.69997507003784,15.8999796875,12.119965070037843,15.8999796875,12.119965070037843C15.8999796875,12.119965070037843,15.8999896875,12.119965070037843,15.9099896875,12.119965070037843C16.4599896875,11.939965070037843,16.499989687499998,11.449965070037841,16.499989687499998,11.309965070037842C16.499989687499998,11.159965070037842,16.4499796875,10.669965070037842,15.8999796875,10.499965070037842C15.8999796875,10.499965070037842,9.6099896875,8.549955070037841,9.6099896875,8.549955070037841C9.5099896875,8.509955070037842,9.4199796875,8.499965070037842,9.3399796875,8.499965070037842C9.3399796875,8.499965070037842,9.3399796875,8.499965070037842,9.3399796875,8.499965070037842Z" fill="#292D32" fill-opacity="1"/></g><g><path d="M12,22.75C6.07,22.75,1.25,17.93,1.25,12C1.25,6.07,6.07,1.25,12,1.25C17.93,1.25,22.75,6.07,22.75,12C22.75,17.93,17.93,22.75,12,22.75C12,22.75,12,22.75,12,22.75ZM12,2.75C6.9,2.75,2.75,6.9,2.75,12C2.75,17.1,6.9,21.25,12,21.25C17.1,21.25,21.25,17.1,21.25,12C21.25,6.9,17.1,2.75,12,2.75C12,2.75,12,2.75,12,2.75Z" fill="#292D32" fill-opacity="1"/></g><g style="opacity:0;"></g></g></g></g></svg>