<svg xmlns="http://www.w3.org/2000/svg" xmlns:xlink="http://www.w3.org/1999/xlink" fill="none" version="1.1" width="24" height="24" viewBox="0 0 24 24"><g><g><g><g style="opacity:0;"></g><g><path d="M14.540000343322754,13.670000076293945C14.180000343322753,13.670000076293945,13.890000343322754,13.960000076293944,13.890000343322754,14.320000076293946C13.890000343322754,14.680000076293945,14.180000343322753,14.970000076293946,14.540000343322754,14.970000076293946C14.900000343322754,14.970000076293946,15.190000343322755,14.680000076293945,15.190000343322755,14.320000076293946C15.180000343322753,13.960000076293944,14.890000343322754,13.670000076293945,14.540000343322754,13.670000076293945C14.540000343322754,13.670000076293945,14.540000343322754,13.670000076293945,14.540000343322754,13.670000076293945Z" fill="#292D32" fill-opacity="1"/></g><g><path d="M9.060000847412109,14.65999984741211C8.70000084741211,14.65999984741211,8.40999984741211,14.95000084741211,8.40999984741211,15.310000847412109C8.40999984741211,15.66999984741211,8.70000084741211,15.95999984741211,9.060000847412109,15.95999984741211C9.41999984741211,15.95999984741211,9.70999984741211,15.66999984741211,9.70999984741211,15.310000847412109C9.70999984741211,14.95000084741211,9.41999984741211,14.65999984741211,9.060000847412109,14.65999984741211C9.060000847412109,14.65999984741211,9.060000847412109,14.65999984741211,9.060000847412109,14.65999984741211Z" fill="#292D32" fill-opacity="1"/></g><g><path d="M16.189999999999998,2C16.189999999999998,2,7.81,2,7.81,2C4.17,2,2,4.17,2,7.81C2,7.81,2,16.18,2,16.18C2,19.83,4.17,22,7.81,22C7.81,22,16.18,22,16.18,22C19.82,22,21.99,19.83,21.99,16.189999999999998C21.99,16.189999999999998,21.99,7.81,21.99,7.81C22,4.17,19.83,2,16.189999999999998,2C16.189999999999998,2,16.189999999999998,2,16.189999999999998,2ZM16.880000000000003,9.55C16.880000000000003,9.55,16.880000000000003,14.31,16.880000000000003,14.31C16.880000000000003,15.6,15.83,16.65,14.54,16.65C13.25,16.65,12.2,15.6,12.2,14.31C12.2,13.02,13.25,11.97,14.54,11.97C14.77,11.97,14.98,12.01,15.19,12.07C15.19,12.07,15.19,10.65,15.19,10.65C15.19,10.65,11.41,11.68,11.41,11.68C11.41,11.68,11.41,15.3,11.41,15.3C11.41,15.31,11.4,15.32,11.4,15.33C11.39,16.61,10.34,17.64,9.059999999999999,17.64C7.77,17.64,6.72,16.59,6.72,15.3C6.72,14.01,7.77,12.96,9.059999999999999,12.96C9.29,12.96,9.5,13,9.71,13.06C9.71,13.06,9.71,11.03,9.71,11.03C9.71,11.03,9.71,9.29,9.71,9.29C9.71,8.32,10.31,7.53,11.25,7.28C11.25,7.28,14.24,6.46,14.24,6.46C15.2,6.2,15.8,6.45,16.14,6.71C16.47,6.97,16.880000000000003,7.48,16.880000000000003,8.48C16.880000000000003,8.48,16.880000000000003,9.55,16.880000000000003,9.55C16.880000000000003,9.55,16.880000000000003,9.55,16.880000000000003,9.55Z" fill="#292D32" fill-opacity="1"/></g></g></g></g></svg>