<svg xmlns="http://www.w3.org/2000/svg" xmlns:xlink="http://www.w3.org/1999/xlink" fill="none" version="1.1" width="24" height="24" viewBox="0 0 24 24"><g><g><g><g><path d="M11.5,21C16.7467,21,21,16.7467,21,11.5C21,6.25329,16.7467,2,11.5,2C6.25329,2,2,6.25329,2,11.5C2,16.7467,6.25329,21,11.5,21C11.5,21,11.5,21,11.5,21Z" fill="#292D32" fill-opacity="1"/></g><g><path d="M21.300001373291018,22.000001373291017C21.120001373291014,22.000001373291017,20.940001373291015,21.930001373291017,20.810001373291016,21.800001373291018C20.810001373291016,21.800001373291018,18.950001373291016,19.940001373291015,18.950001373291016,19.940001373291015C18.680001373291017,19.670001373291015,18.680001373291017,19.230001373291017,18.950001373291016,18.950001373291016C19.220001373291016,18.680001373291017,19.660001373291017,18.680001373291017,19.940001373291015,18.950001373291016C19.940001373291015,18.950001373291016,21.800001373291018,20.810001373291016,21.800001373291018,20.810001373291016C22.070001373291014,21.080001373291015,22.070001373291014,21.520001373291016,21.800001373291018,21.800001373291018C21.660001373291017,21.930001373291017,21.480001373291017,22.000001373291017,21.300001373291018,22.000001373291017C21.300001373291018,22.000001373291017,21.300001373291018,22.000001373291017,21.300001373291018,22.000001373291017Z" fill="#292D32" fill-opacity="1"/></g><g transform="matrix(-1,-1.2246469849340659e-16,1.2246469849340659e-16,-1,48,48)" style="opacity:0;"></g></g></g></g></svg>