<svg xmlns="http://www.w3.org/2000/svg" xmlns:xlink="http://www.w3.org/1999/xlink" fill="none" version="1.1" width="24" height="24" viewBox="0 0 24 24"><g><g><g style="opacity:0;"></g><g><path d="M21,7.52C21,7.52,21,13.4,21,13.4C21,13.74,20.67,13.98,20.35,13.88C20.35,13.88,16.42,12.66,16.42,12.66C15.34,12.33,14.18,12.61,13.39,13.4C12.59,14.2,12.3,15.37,12.64,16.45C12.64,16.45,13.85,20.35,13.85,20.35C13.95,20.67,13.71,21,13.37,21C13.37,21,7.52,21,7.52,21C4.07,21,2,18.94,2,15.48C2,15.48,2,7.52,2,7.52C2,4.0600000000000005,4.07,2,7.52,2C7.52,2,15.48,2,15.48,2C18.93,2,21,4.0600000000000005,21,7.52C21,7.52,21,7.52,21,7.52Z" fill="#292D32" fill-opacity="1"/></g><g><path d="M21.960002244873046,18.840001287841798C21.960002244873046,18.840001287841798,20.330002244873047,19.390001287841798,20.330002244873047,19.390001287841798C19.880002244873047,19.540001287841797,19.520002244873048,19.890001287841798,19.370002244873046,20.3500012878418C19.370002244873046,20.3500012878418,18.820002244873045,21.980001287841798,18.820002244873045,21.980001287841798C18.350002244873046,23.390001287841798,16.370002244873046,23.360001287841797,15.930002244873046,21.950001287841797C15.930002244873046,21.950001287841797,14.079999544873047,16.000001287841798,14.079999544873047,16.000001287841798C13.719999244873048,14.820000287841797,14.809999244873048,13.720000287841797,15.980002244873047,14.090000387841798C15.980002244873047,14.090000387841798,21.940002244873046,15.940001287841797,21.940002244873046,15.940001287841797C23.340002244873048,16.380001287841797,23.360002244873044,18.370001287841795,21.960002244873046,18.840001287841798C21.960002244873046,18.840001287841798,21.960002244873046,18.840001287841798,21.960002244873046,18.840001287841798Z" fill="#292D32" fill-opacity="1"/></g></g></g></svg>