<svg xmlns="http://www.w3.org/2000/svg" xmlns:xlink="http://www.w3.org/1999/xlink" fill="none" version="1.1" width="24" height="24" viewBox="0 0 24 24"><g><g><g><g><path d="M11.01,20.02C15.9861,20.02,20.02,15.9861,20.02,11.01C20.02,6.03391,15.9861,2,11.01,2C6.03391,2,2,6.03391,2,11.01C2,15.9861,6.03391,20.02,11.01,20.02C11.01,20.02,11.01,20.02,11.01,20.02Z" fill="#292D32" fill-opacity="1"/></g><g><path d="M21.989995376586915,18.95C21.659995376586913,18.34,20.959995376586914,18,20.019995376586913,18C19.309995376586915,18,18.699999376586913,18.29,18.339999376586913,18.79C17.979999976586914,19.29,17.899999976586916,19.96,18.119999376586915,20.63C18.549999376586914,21.93,19.299995376586914,22.22,19.709995376586914,22.27C19.769995376586913,22.28,19.829995376586915,22.28,19.899995376586915,22.28C20.339995376586913,22.28,21.019995376586913,22.09,21.679995376586913,21.1C22.209995376586914,20.33,22.309995376586915,19.56,21.989995376586915,18.95C21.989995376586915,18.95,21.989995376586915,18.95,21.989995376586915,18.95Z" fill="#292D32" fill-opacity="1"/></g><g transform="matrix(-1,-1.2246469849340659e-16,1.2246469849340659e-16,-1,48,48)" style="opacity:0;"></g></g></g></g></svg>