<svg xmlns="http://www.w3.org/2000/svg" xmlns:xlink="http://www.w3.org/1999/xlink" fill="none" version="1.1" width="24" height="24" viewBox="0 0 24 24"><g><g><g><g style="opacity:0;"></g><g><path d="M20.960002244873046,17.840001287841798C20.960002244873046,17.840001287841798,19.330002244873047,18.390001287841798,19.330002244873047,18.390001287841798C18.880002244873047,18.540001287841797,18.520002244873048,18.890001287841798,18.370002244873046,19.3500012878418C18.370002244873046,19.3500012878418,17.820002244873045,20.980001287841798,17.820002244873045,20.980001287841798C17.350002244873046,22.390001287841798,15.370002244873046,22.360001287841797,14.930002244873046,20.950001287841797C14.930002244873046,20.950001287841797,13.079999544873047,15.000001287841798,13.079999544873047,15.000001287841798C12.719999244873048,13.820000287841797,13.809999244873048,12.720000287841797,14.980002244873047,13.090000387841798C14.980002244873047,13.090000387841798,20.940002244873046,14.940001287841797,20.940002244873046,14.940001287841797C22.340002244873048,15.380001287841797,22.360002244873044,17.370001287841795,20.960002244873046,17.840001287841798C20.960002244873046,17.840001287841798,20.960002244873046,17.840001287841798,20.960002244873046,17.840001287841798Z" fill="#292D32" fill-opacity="1"/></g><g><path d="M20.999975729751586,11.499995729751587C20.999975729751586,11.929995729751587,20.969975729751585,12.359975729751588,20.919975729751588,12.779975729751587C20.879975729751585,13.079975729751586,20.569975729751587,13.259975729751586,20.279975729751587,13.169975729751586C20.279975729751587,13.169975729751586,15.429975729751586,11.659995729751587,15.429975729751586,11.659995729751587C14.349975729751588,11.329995729751587,13.199975729751587,11.609995729751587,12.399975729751587,12.399975729751587C11.599995729751587,13.199975729751587,11.309995729751586,14.369975729751587,11.649995729751588,15.449975729751587C11.649995729751588,15.449975729751587,13.149975729751587,20.279975729751587,13.149975729751587,20.279975729751587C13.239975729751587,20.569975729751587,13.049975729751587,20.879975729751585,12.749975729751586,20.919975729751588C12.329975729751586,20.969975729751585,11.919995729751587,20.999975729751586,11.499995729751587,20.999975729751586C6.159995729751587,20.999975729751586,1.859999729751587,16.60997572975159,1.999999999751587,11.229995729751588C2.1399997297515867,6.269995729751587,6.269995729751587,2.1399997297515867,11.229995729751588,1.999999999751587C16.60997572975159,1.859999729751587,20.999975729751586,6.159995729751587,20.999975729751586,11.499995729751587C20.999975729751586,11.499995729751587,20.999975729751586,11.499995729751587,20.999975729751586,11.499995729751587Z" fill="#292D32" fill-opacity="1"/></g></g></g></g></svg>