<svg xmlns="http://www.w3.org/2000/svg" xmlns:xlink="http://www.w3.org/1999/xlink" fill="none" version="1.1" width="24" height="24" viewBox="0 0 24 24"><g><g><path d="M7,2C4.23858,2,2,4.23858,2,7C2,7,2,17,2,17C2,19.7614,4.23858,22,7,22C7,22,17,22,17,22C19.7614,22,22,19.7614,22,17C22,17,22,7,22,7C22,4.23858,19.7614,2,17,2C17,2,7,2,7,2C7,2,7,2,7,2ZM13.3449,7.46591C12.7947,6.35104,11.20494,6.35104,10.65472,7.46591C10.65472,7.46591,9.866299999999999,9.06343,9.866299999999999,9.06343C9.866299999999999,9.06343,8.10332,9.31961,8.10332,9.31961C6.87299,9.49839,6.38173,11.01035,7.272,11.87815C7.272,11.87815,8.547699999999999,13.1216,8.547699999999999,13.1216C8.547699999999999,13.1216,8.24655,14.8775,8.24655,14.8775C8.03639,16.102899999999998,9.32253,17.037300000000002,10.42297,16.4588C10.42297,16.4588,11.99982,15.6298,11.99982,15.6298C11.99982,15.6298,13.5767,16.4588,13.5767,16.4588C14.6771,17.037300000000002,15.9633,16.102899999999998,15.7531,14.8775C15.7531,14.8775,15.4519,13.1216,15.4519,13.1216C15.4519,13.1216,16.727600000000002,11.87815,16.727600000000002,11.87815C17.6179,11.01035,17.1267,9.49839,15.8963,9.31961C15.8963,9.31961,14.1334,9.06343,14.1334,9.06343C14.1334,9.06343,13.3449,7.46591,13.3449,7.46591C13.3449,7.46591,13.3449,7.46591,13.3449,7.46591Z" fill-rule="evenodd" fill="#000000" fill-opacity="1"/></g></g></svg>