<svg xmlns="http://www.w3.org/2000/svg" xmlns:xlink="http://www.w3.org/1999/xlink" fill="none" version="1.1" width="24" height="24" viewBox="0 0 24 24"><g><g><g><g style="opacity:0.10000000149011612;"></g></g></g><g><path d="M9,14C6.23858,14,4,16.23858,4,19C4,20.65685,5.34315,22,7,22C7,22,17,22,17,22C18.6569,22,20,20.65685,20,19C20,16.23858,17.761400000000002,14,15,14C15,14,9,14,9,14C9,14,9,14,9,14Z" fill-rule="evenodd" fill="#000000" fill-opacity="1"/></g><g><path d="M12,2C9.238579999999999,2,7,4.23858,7,7C7,9.761420000000001,9.238579999999999,12,12,12C14.761420000000001,12,17,9.761420000000001,17,7C17,4.23858,14.761420000000001,2,12,2C12,2,12,2,12,2Z" fill-rule="evenodd" fill="#000000" fill-opacity="1"/></g></g></svg>