<svg xmlns="http://www.w3.org/2000/svg" xmlns:xlink="http://www.w3.org/1999/xlink" fill="none" version="1.1" width="24" height="24" viewBox="0 0 24 24"><g><g><g><g><path d="M16.189999999999998,2C16.189999999999998,2,7.81,2,7.81,2C4.17,2,2,4.17,2,7.81C2,7.81,2,16.18,2,16.18C2,19.83,4.17,22,7.81,22C7.81,22,16.18,22,16.18,22C19.82,22,21.99,19.83,21.99,16.189999999999998C21.99,16.189999999999998,21.99,7.81,21.99,7.81C22,4.17,19.83,2,16.189999999999998,2C16.189999999999998,2,16.189999999999998,2,16.189999999999998,2ZM14.66,13.73C14.66,13.73,13.38,14.47,13.38,14.47C13.38,14.47,12.1,15.21,12.1,15.21C10.45,16.16,9.1,15.38,9.1,13.48C9.1,13.48,9.1,12,9.1,12C9.1,12,9.1,10.52,9.1,10.52C9.1,8.61,10.45,7.84,12.1,8.79C12.1,8.79,13.38,9.530000000000001,13.38,9.530000000000001C13.38,9.530000000000001,14.66,10.27,14.66,10.27C16.310000000000002,11.22,16.310000000000002,12.78,14.66,13.73C14.66,13.73,14.66,13.73,14.66,13.73Z" fill="#292D32" fill-opacity="1"/></g><g style="opacity:0;"></g></g></g></g></svg>